<svg height="512pt" viewBox="0 -1 512 512" width="512pt" xmlns="http://www.w3.org/2000/svg"><path
fill="rgb(136, 136, 246)"
 d="m456.164062 392.296875-37.691406-128.742187c22.949219-13.835938 38.335938-39.003907 38.335938-67.703126 0-43.558593-35.441406-79-79-79-54.75 0-92.835938 54.546876-74.320313 105.777344l-57.871093 39.738282c-22.636719-21.734376-53.84375-31.289063-84.566407-26.164063l-36.578125-94.347656c19.601563-14.269531 32.382813-37.378907 32.382813-63.429688 0-43.242187-35.183594-78.425781-78.429688-78.425781-43.242187 0-78.425781 35.183594-78.425781 78.425781 0 46.4375 40.4375 83.148438 87.1875 77.925781l36.582031 94.347657c-27.121093 17.601562-45.101562 48.148437-45.101562 82.820312 0 54.40625 44.261719 98.667969 98.664062 98.667969 70.601563 0 118.203125-72.273438 90.96875-136.871094l57.875-39.746094c13.859375 12 31.90625 19.285157 51.632813 19.285157.761718 0 1.515625-.039063 2.273437-.058594l37.703125 128.769531c-14.804687 10.796875-24.449218 28.265625-24.449218 47.953125 0 32.71875 26.613281 59.332031 59.332031 59.332031s59.332031-26.613281 59.332031-59.332031c0-31.539062-24.742188-57.402343-55.835938-59.222656zm-416.164062-313.871094c0-21.1875 17.238281-38.425781 38.425781-38.425781 21.191407 0 38.429688 17.238281 38.429688 38.425781s-17.238281 38.429688-38.429688 38.429688c-21.1875 0-38.425781-17.242188-38.425781-38.429688zm137.332031 313.761719c-32.347656 0-58.664062-26.316406-58.664062-58.667969 0-32.347656 26.316406-58.664062 58.664062-58.664062 32.351563 0 58.667969 26.316406 58.667969 58.664062 0 32.351563-26.316406 58.667969-58.667969 58.667969zm161.476563-196.332031c0-21.507813 17.496094-39 39-39s39 17.492187 39 39c0 21.503906-17.496094 39-39 39s-39-17.496094-39-39zm113.859375 275c-10.660157 0-19.335938-8.675781-19.335938-19.335938 0-10.660156 8.675781-19.332031 19.335938-19.332031 10.660156 0 19.332031 8.671875 19.332031 19.332031 0 10.660157-8.671875 19.335938-19.332031 19.335938zm0 0"/></svg>