<svg height="511pt" viewBox="0 -33 511.99873 511" width="511pt" xmlns="http://www.w3.org/2000/svg"><path d="m280.988281 169.746094 133.394531-74.457032 67.683594 121.261719-133.394531 74.457031zm0 0" fill="#e5e5e5"/><path d="m498.753906 243.789062-134.539062 75.089844c-20.171875 11.257813-43.515625 13.988282-65.738282 7.6875l-20.339843-5.769531c-8.953125-2.539063-18.355469-1.4375-26.476563 3.09375l-213.246094 119.023437c-12.453124 6.949219-28.183593 2.488282-35.136718-9.964843-6.949219-12.457031-2.488282-28.183594 9.964844-35.136719l213.246093-119.019531c20.171875-11.257813 43.519531-13.988281 65.738281-7.683594l20.339844 5.765625c8.953125 2.539062 18.355469 1.441406 26.476563-3.09375l134.539062-75.09375c12.457031-6.949219 28.183594-2.488281 35.136719 9.964844 6.949219 12.457031 2.488281 28.1875-9.964844 35.136718zm0 0" fill="#4297d0"/><path d="m508.722656 208.65625c6.945313 12.449219 2.488282 28.179688-9.972656 35.136719l-134.539062 75.089843c-20.164063 11.253907-43.507813 13.984376-65.738282 7.683594l-20.332031-5.765625c-8.949219-2.539062-18.351563-1.441406-26.480469 3.09375l-213.246094 119.019531c-12.449218 6.949219-28.179687 2.488282-35.128906-9.960937-2.101562-3.765625-3.171875-7.839844-3.253906-11.886719 7.773438 5.085938 18.039062 5.78125 26.710938.9375l213.246093-119.019531c8.128907-4.535156 17.53125-5.632813 26.480469-3.09375l20.332031 5.765625c22.230469 6.304688 45.578125 3.570312 65.738281-7.683594l134.539063-75.089844c8.683594-4.847656 13.484375-13.964843 13.226563-23.25 3.390624 2.203126 6.308593 5.246094 8.417968 9.023438zm0 0" fill="#1876a9"/><g fill="#cbcbcb"><path d="m374.191406 117.722656 13.6875-7.640625 58.0625 104.023438-13.6875 7.640625zm0 0"/><path d="m340.84375 136.335938 13.683594-7.636719 58.066406 104.023437-13.6875 7.640625zm0 0"/><path d="m307.496094 154.953125 13.683594-7.640625 58.066406 104.027344-13.6875 7.636718zm0 0"/></g><path d="m379.3125.5 13.355469 23.925781c19.503906 34.941407 1.640625 82.082031-39.910157 105.273438l-83.339843 46.515625-13.355469-23.925782c-19.507812-34.953124-1.628906-82.089843 39.910156-105.273437zm0 0" fill="#5bb0b7"/><path d="m379.3125.5 13.355469 23.925781c19.503906 34.941407 1.640625 82.082031-39.910157 105.273438l-47.09375 26.285156-13.351562-23.925781c-19.507812-34.953125-1.644531-82.082032 39.910156-105.273438zm0 0" fill="#87cdd8"/></svg>